<?xml version="1.0" encoding="UTF-8"?>
<!-- Created with Inkscape (http://www.inkscape.org/) -->
<svg id="svg2" width="192" height="192" version="1.1" viewBox="0 0 192 192" xmlns="http://www.w3.org/2000/svg">
 <rect id="rect4593" y="4.6372e-5" width="192" height="192" ry="14.299" fill="#39bde2" stroke-width="0" style="paint-order:markers fill stroke"/>
 <path id="path4585" d="m92.711 21.618c-1.8388-0.02202-3.6935 0.07328-5.5586 0.29688-28.478 3.414-49.928 24.209-50.123 52.959-0.1504 22.199 17.458 35.462 31.93 38.492 6.2125 1.3008 11.659 0.5786 18.002-0.91992 6.3429-1.4985 12.797-6.8496 12.797-6.8496-2.9536 9.3775-5.8304 12.824-11.133 18.973s-19.701 15.765-35.965 25.76c-2.7316 1.6473-12.305 8.2102-14.961 9.709 11.305-1.1897 30.683-3.8588 45.039-4.9023 35.612-2.5886 77.309-4.301 109.26-2.9512v-37.537c-23.738 14.537-46.177 22.372-59.818 25.74-14.316 3.5349-35.172 3.7695-35.172 3.7695s2.8052-2.7389 11.324-9.5586c8.519-6.8197 20.189-19.268 26.688-28.84 5.9436-8.7547 9.6748-15.341 9.4395-36.82-0.22062-20.137-24.168-46.99-51.75-47.32z" fill="#1e99ba" stroke-width="0" style="paint-order:markers fill stroke"/>
 <path id="path4530" d="m91.686 54.876a25.188 21.875 0 0 0 -25.188 21.875 25.188 21.875 0 0 0 25.188 21.875 25.188 21.875 0 0 0 25.188 -21.875 25.188 21.875 0 0 0 -25.188 -21.875z" fill="#39bde2" stroke-width="0" style="paint-order:markers fill stroke"/>
 <path id="path4495-7" d="m91.627 42.543c-19.788 0-34.32 15.827-35.521 33.261-1.255 18.206 15.738 31.062 26.956 31.983s15.269-1.9188 17.939-4.7868c-9.321 24.691-21.401 32.957-33.08 44.758 28.218-9.1696 59.687-36.982 59.537-73.572 0-17.475-16.042-31.643-35.83-31.643zm0.6211 14.457c11.046 0 20 8.9543 20 20s-8.9543 20-20 20c-11.046 0-21.414-9.1311-21.414-20.177s10.369-19.823 21.414-19.823z" fill="#fff" style="paint-order:markers fill stroke"/>
 <path id="path4487-5" d="m90.164 10.745c-1.0766-0.01867-2.1586-0.01475-3.2441 0.01367-35.145 0.92022-59.007 28.111-60.506 64.236-1.2258 29.537 26.726 55.036 53.02 49.004-7.6896 7.1099-17.551 14.439-30.979 22.014-13.427 7.5749-35.401 18.457-48.455 23.773 0 1.3938 4e-3 2.7203 0 3.8862 28.294-3.2745 57.728-6.6804 83.463-8.5638 35.527-2.5825 77.281-4.2612 108.54-2.9121v-10.719c-31.953-1.3504-73.023 1.1945-108.64 3.7833-14.356 1.0435-37.109 4.2126-48.414 5.4023 22.426-10.559 41.662-24.623 50.509-33.671s11.651-14.456 15.542-23.992c0 0-7.6962 7.9475-14.039 9.446-6.3429 1.4985-11.789 2.2207-18.002 0.91992-14.471-3.03-32.08-16.293-31.93-38.492 0.19479-28.75 21.645-49.545 50.123-52.959 29.842-3.5775 57.073 25.544 57.309 47.023s-3.4958 28.066-9.4395 36.82c-6.4982 9.5716-18.169 22.02-26.688 28.84-8.519 6.8197-11.324 9.5586-11.324 9.5586s20.855-0.23461 35.172-3.7695c13.141-3.2447 36.685-9.865 59.818-23.27v-11.666c-10.188 6.4268-24.584 14.191-37.236 19.416-12.979 5.3592-23.815 8.5508-34.342 10.883 9.371-7.9176 17.525-16.302 24.236-26.73s10.871-23.851 9.7832-40.727c-2.1882-33.949-30.902-56.97-64.277-57.549z" color="#000000" color-rendering="auto" fill="#fff" fill-rule="evenodd" image-rendering="auto" shape-rendering="auto" solid-color="#000000" style="isolation:auto;mix-blend-mode:normal;text-decoration-color:#000000;text-decoration-line:none;text-decoration-style:solid;text-indent:0;text-transform:none;white-space:normal"/>
</svg>
